# Generated by Visualization Toolkit
mtllib pyramid.mtl
v 0 2.5 -2.1648900846821896e-16
v 5 -2.5 6.494670651093263e-16
v 7.391397433176197e-16 -2.5 -5
v -5 -2.5 -8.288124215259131e-16
v -1.3514630902008648e-15 -2.5 5
v 0 2.5 -2.1648900846821896e-16
v 0 2.5 -2.1648900846821896e-16
v 0 2.5 -2.1648900846821896e-16
v 5 -2.5 6.494670651093263e-16
v 5 -2.5 6.494670651093263e-16
v 7.391397433176197e-16 -2.5 -5
v 7.391397433176197e-16 -2.5 -5
v -5 -2.5 -8.288124215259131e-16
v -5 -2.5 -8.288124215259131e-16
v -1.3514630902008648e-15 -2.5 5
v -1.3514630902008648e-15 -2.5 5
vn 0.5773503184318542 0.5773503184318542 0.5773503184318542
vn 0.5773503184318542 0.5773503184318542 0.5773503184318542
vn -0.5773503184318542 0.5773503184318542 -0.5773503184318542
vn -0.5773503184318542 0.5773503184318542 0.5773503184318542
vn 0.5773503184318542 0.5773503184318542 0.5773503184318542
vn -0.5773503184318542 0.5773503184318542 0.5773503184318542
vn -0.5773503184318542 0.5773503184318542 -0.5773503184318542
vn 0.5773503184318542 0.5773503184318542 -0.5773503184318542
vn 0.5773503184318542 0.5773503184318542 -0.5773503184318542
vn 0 -1 0
vn 0.5773503184318542 0.5773503184318542 -0.5773503184318542
vn 0 -1 0
vn -0.5773503184318542 0.5773503184318542 -0.5773503184318542
vn 0 -1 0
vn -0.5773503184318542 0.5773503184318542 0.5773503184318542
vn 0 -1 0
usemtl pyramid
f 16//16 14//14 12//12 10//10
f 8//8 9//9 11//11
f 7//7 3//3 13//13
f 6//6 4//4 15//15
f 1//1 5//5 2//2
