# Generated by Visualization Toolkit
mtllib rectangle_5_by_8.mtl
v 0 0 -0.5
v 0 0 0.5
v 0 8 -0.5
v 0 8 0.5
v 5 0 -0.5
v 5 0 0.5
v 5 8 -0.5
v 5 8 0.5
v 0 0 -0.5
v 0 0 0.5
v 5 0 -0.5
v 5 0 0.5
v 0 8 -0.5
v 0 8 0.5
v 5 8 -0.5
v 5 8 0.5
v 0 0 -0.5
v 5 0 -0.5
v 0 8 -0.5
v 5 8 -0.5
v 0 0 0.5
v 5 0 0.5
v 0 8 0.5
v 5 8 0.5
vn -1 0 0
vn -1 0 0
vn -1 0 0
vn -1 0 0
vn 1 0 0
vn 1 0 0
vn 1 0 0
vn 1 0 0
vn 0 -1 0
vn 0 -1 0
vn 0 -1 0
vn 0 -1 0
vn 0 1 0
vn 0 1 0
vn 0 1 0
vn 0 1 0
vn 0 0 -1
vn 0 0 -1
vn 0 0 -1
vn 0 0 -1
vn 0 0 1
vn 0 0 1
vn 0 0 1
vn 0 0 1
# tcoords array 0
vt 0 0.5
vt 1 0.5
vt 0 8.5
vt 1 8.5
vt -0 0.5
vt -0 8.5
vt -0.5 -0
vt -0.5 -1
vt -5.5 -0
vt -5.5 -1
vt 0.5 -0
vt 0.5 -1
vt 5.5 -0
vt 5.5 -1
vt -0.5 0.5
vt -5.5 0.5
vt -0.5 8.5
vt -5.5 8.5
vt 0.5 0.5
vt 5.5 0.5
vt 0.5 8.5
vt 5.5 8.5
usemtl rectangle_5_by_8
f 1/1/1 2/2/2 3/3/3
f 2/2/2 4/4/4 3/3/3
f 5/5/5 7/7/7 6/6/6
f 7/7/7 8/8/8 6/6/6
f 9/9/9 11/11/11 10/10/10
f 11/11/11 12/12/12 10/10/10
f 13/13/13 14/14/14 15/15/15
f 14/14/14 16/16/16 15/15/15
f 17/17/17 19/19/19 18/18/18
f 19/19/19 20/20/20 18/18/18
f 21/21/21 22/22/22 23/23/23
f 22/22/22 24/24/24 23/23/23
